# xmcd
#
# Track frame offsets:
#	150
#	20992
#	43857
#	61492
#	73232
#	87012
#	104000
#	119070
#	139162
#	153859
#	166984
#	186370
#	206205
#	221337
#	240045
#	253300
#	264922
#
# Disc length: 3720
#
# Revision: 2
# Processed by: cddbd v1.5.1PL0 Copyright (c) Steve Scherf et al.
# Submitted via: CDex 1.40Release
# Normalized: r1:DSETVAR1,TDELIM( - )
#
DISCID=030e8611
DTITLE=Various Artist - Moulin Blues Ospel
DYEAR=2000
DGENRE=Blues
TTITLE0=Commit a Crime - Big Foot Chester
TTITLE1=Hard to get along - Calvin Jackson and Mississippi Bound
TTITLE2=Waiting on the card to fall - Guy Davis
TTITLE3=Slippin'in - The Paladins
TTITLE4=Showdown - Mike and The Mellowtones
TTITLE5=Deeper Shades - J.W. Roy And The One Night Band
TTITLE6=Watcha Gonna Do - The Blazers
TTITLE7=Beggin'ain't for me - Big George Jackson
TTITLE8=Stay Out All Night Long - The Nightporters
TTITLE9=End of The Line - The Hot Club Of Cowdown
TTITLE10=Pretty Thing - Nightlosers
TTITLE11=Green Grass - Zydecomotion
TTITLE12=Lacassine special - Acadia
TTITLE13=Above and Beyond - Kathi McDonald
TTITLE14=Nancy Sinatra - The Bottle Rockets
TTITLE15=So Loaded - Bo Weavil Bleus Band
TTITLE16=Heaven - Cigar Store Indians
EXTD=YEAR: 2000 ID3G: 0
EXTT0=
EXTT1=
EXTT2=
EXTT3=
EXTT4=
EXTT5=
EXTT6=
EXTT7=
EXTT8=
EXTT9=
EXTT10=
EXTT11=
EXTT12=
EXTT13=
EXTT14=
EXTT15=
EXTT16=
PLAYORDER=
